<svg width="82" height="41" viewBox="0 0 82 41" fill="none" xmlns="http://www.w3.org/2000/svg">
<rect x="0.0200195" y="0.5" width="81.98" height="40" rx="5" fill="#5D78FF"/>
<path d="M25.1548 21.256H22.48L22.4655 19.9366H24.8015C25.1956 19.9366 25.5297 19.8789 25.8037 19.7635C26.0824 19.6434 26.2939 19.4727 26.4381 19.2516C26.5823 19.0257 26.6544 18.7542 26.6544 18.4369C26.6544 18.0861 26.5871 17.8001 26.4525 17.579C26.318 17.3579 26.1113 17.1969 25.8325 17.0959C25.5585 16.995 25.2077 16.9445 24.7799 16.9445H23.0279V26H21.2182V15.5026H24.7799C25.3567 15.5026 25.871 15.5578 26.3228 15.6684C26.7794 15.7789 27.1663 15.952 27.4835 16.1875C27.8056 16.4182 28.0483 16.7114 28.2117 17.0671C28.38 17.4228 28.4641 17.8457 28.4641 18.336C28.4641 18.7686 28.3607 19.1651 28.154 19.5256C27.9474 19.8813 27.6422 20.1721 27.2384 20.398C26.8347 20.6239 26.3324 20.7585 25.7316 20.8018L25.1548 21.256ZM25.0755 26H21.9104L22.7251 24.5653H25.0755C25.484 24.5653 25.8253 24.498 26.0993 24.3634C26.3732 24.224 26.5775 24.0341 26.7121 23.7938C26.8515 23.5487 26.9212 23.2627 26.9212 22.9358C26.9212 22.5946 26.8611 22.299 26.7409 22.049C26.6208 21.7943 26.4309 21.5996 26.1714 21.465C25.9118 21.3257 25.5729 21.256 25.1548 21.256H23.1216L23.136 19.9366H25.782L26.193 20<svg width="82" height="41" viewBox="0 0 82 41" fill="none" xmlns="http://www.w3.org/2000/svg">
<rect x="0.0200195" y="0.5" width="81.98" height="40" rx="5" fill="#5D78FF"/>
<path d="M25.1548 21.256H22.48L22.4655 19.9366H24.8015C25.1956 19.9366 25.5297 19.8789 25.8037 19.7635C26.0824 19.6434 26.2939 19.4727 26.4381 19.2516C26.5823 19.0257 26.6544 18.7542 26.6544 18.4369C26.6544 18.0861 26.5871 17.8001 26.4525 17.579C26.318 17.3579 26.1113 17.1969 25.8325 17.0959C25.5585 16.995 25.2077 16.9445 24.7799 16.9445H23.0279V26H21.2182V15.5026H24.7799C25.3567 15.5026 25.871 15.5578 26.3228 15.6684C26.7794 15.7789 27.1663 15.952 27.4835 16.1875C27.8056 16.4182 28.0483 16.7114 28.2117 17.0671C28.38 17.4228 28.4641 17.8457 28.4641 18.336C28.4641 18.7686 28.3607 19.1651 28.154 19.5256C27.9474 19.8813 27.6422 20.1721 27.2384 20.398C26.8347 20.6239 26.3324 20.7585 25.7316 20.8018L25.1548 21.256ZM25.0755 26H21.9104L22.7251 24.5653H25.0755C25.484 24.5653 25.8253 24.498 26.0993 24.3634C26.3732 24.224 26.5775 24.0341 26.7121 23.7938C26.8515 23.5487 26.9212 23.2627 26.9212 22.9358C26.9212 22.5946 26.8611 22.299 26.7409 22.049C26.6208 21.7943 26.4309 21.5996 26.1714 21.465C25.9118 21.3257 25.5729 21.256 25.1548 21.256H23.1216L23.136 19.9366H25.782L26.193 20.4341C26.7698 20.4533 27.2432 20.5807 27.6133 20.8162C27.9882 21.0517 28.267 21.3569 28.4496 21.7318C28.6323 22.1067 28.7236 22.5105 28.7236 22.9431C28.7236 23.6112 28.577 24.1711 28.2838 24.6229C27.9954 25.0747 27.5797 25.4184 27.0365 25.6539C26.4934 25.8846 25.8397 26 25.0755 26ZM30.043 22.186V22.0202C30.043 21.4578 30.1247 20.9363 30.2881 20.4557C30.4516 19.9702 30.6871 19.5497 30.9947 19.194C31.3071 18.8335 31.6868 18.5547 32.1338 18.3576C32.5857 18.1558 33.0951 18.0548 33.6623 18.0548C34.2343 18.0548 34.7438 18.1558 35.1908 18.3576C35.6426 18.5547 36.0247 18.8335 36.3371 19.194C36.6496 19.5497 36.8875 19.9702 37.0509 20.4557C37.2143 20.9363 37.296 21.4578 37.296 22.0202V22.186C37.296 22.7484 37.2143 23.2699 37.0509 23.7505C36.8875 24.2312 36.6496 24.6518 36.3371 25.0123C36.0247 25.3679 35.645 25.6467 35.198 25.8486C34.751 26.0457 34.2439 26.1442 33.6767 26.1442C33.1048 26.1442 32.5929 26.0457 32.1411 25.8486C31.694 25.6467 31.3143 25.3679 31.0019 25.0123C30.6895 24.6518 30.4516 24.2312 30.2881 23.7505C30.1247 23.2699 30.043 22.7484 30.043 22.186ZM31.7806 22.0202V22.186C31.7806 22.5369 31.8166 22.8686 31.8887 23.181C31.9608 23.4934 32.0738 23.7674 32.2276 24.0029C32.3814 24.2384 32.5784 24.4235 32.8188 24.558C33.0591 24.6926 33.3451 24.7599 33.6767 24.7599C33.9988 24.7599 34.2776 24.6926 34.5131 24.558C34.7534 24.4235 34.9505 24.2384 35.1043 24.0029C35.2581 23.7674 35.371 23.4934 35.4431 23.181C35.52 22.8686 35.5585 22.5369 35.5585 22.186V22.0202C35.5585 21.6741 35.52 21.3473 35.4431 21.0397C35.371 20.7272 35.2557 20.4509 35.0971 20.2105C34.9433 19.9702 34.7462 19.7828 34.5059 19.6482C34.2703 19.5088 33.9892 19.4391 33.6623 19.4391C33.3355 19.4391 33.0519 19.5088 32.8116 19.6482C32.576 19.7828 32.3814 19.9702 32.2276 20.2105C32.0738 20.4509 31.9608 20.7272 31.8887 21.0397C31.8166 21.3473 31.7806 21.6741 31.7806 22.0202ZM40.5477 23.4622L43.6118 18.199H45.3494V26H43.6118V20.7297L40.5477 26H38.8101V18.199H40.5477V23.4622ZM43.1504 15.1998H44.4409C44.4409 15.5987 44.3448 15.952 44.1525 16.2596C43.9651 16.5624 43.6959 16.8003 43.3451 16.9734C42.999 17.1464 42.5856 17.2329 42.105 17.2329C41.3792 17.2329 40.8048 17.0455 40.3818 16.6705C39.9637 16.2908 39.7546 15.8006 39.7546 15.1998H41.0451C41.0451 15.4689 41.1244 15.7068 41.2831 15.9135C41.4465 16.1154 41.7204 16.2163 42.105 16.2163C42.4847 16.2163 42.7538 16.1154 42.9125 15.9135C43.0711 15.7068 43.1504 15.4689 43.1504 15.1998ZM50.8072 18.199V26H49.0624V18.199H50.8072ZM53.3666 18.199V19.5689H46.5462V18.199H53.3666ZM56.3227 23.4622L59.3868 18.199H61.1244V26H59.3868V20.7297L56.3227 26H54.5851V18.199H56.3227V23.4622Z" fill="white"/>
</svg>
.4341C26.7698 20.4533 27.2432 20.5807 27.6133 20.8162C27.9882 21.0517 28.267 21.3569 28.4496 21.7318C28.6323 22.1067 28.7236 22.5105 28.7236 22.9431C28.7236 23.6112 28.577 24.1711 28.2838 24.6229C27.9954 25.0747 27.5797 25.4184 27.0365 25.6539C26.4934 25.8846 25.8397 26 25.0755 26ZM30.043 22.186V22.0202C30.043 21.4578 30.1247 20.9363 30.2881 20.4557C30.4516 19.9702 30.6871 19.5497 30.9947 19.194C31.3071 18.8335 31.6868 18.5547 32.1338 18.3576C32.5857 18.1558 33.0951 18.0548 33.6623 18.0548C34.2343 18.0548 34.7438 18.1558 35.1908 18.3576C35.6426 18.5547 36.0247 18.8335 36.3371 19.194C36.6496 19.5497 36.8875 19.9702 37.0509 20.4557C37.2143 20.9363 37.296 21.4578 37.296 22.0202V22.186C37.296 22.7484 37.2143 23.2699 37.0509 23.7505C36.8875 24.2312 36.6496 24.6518 36.3371 25.0123C36.0247 25.3679 35.645 25.6467 35.198 25.8486C34.751 26.0457 34.2439 26.1442 33.6767 26.1442C33.1048 26.1442 32.5929 26.0457 32.1411 25.8486C31.694 25.6467 31.3143 25.3679 31.0019 25.0123C30.6895 24.6518 30.4516 24.2312 30.2881 23.7505C30.1247 23.2699 30.043 22.7484 30.043 22.186ZM31.7806 22.0202V22.186C31.7806 22.5369 31.8166 22.8686 31.8887 23.181C31.9608 23.4934 32.0738 23.7674 32.2276 24.0029C32.3814 24.2384 32.5784 24.4235 32.8188 24.558C33.0591 24.6926 33.3451 24.7599 33.6767 24.7599C33.9988 24.7599 34.2776 24.6926 34.5131 24.558C34.7534 24.4235 34.9505 24.2384 35.1043 24.0029C35.2581 23.7674 35.371 23.4934 35.4431 23.181C35.52 22.8686 35.5585 22.5369 35.5585 22.186V22.0202C35.5585 21.6741 35.52 21.3473 35.4431 21.0397C35.371 20.7272 35.2557 20.4509 35.0971 20.2105C34.9433 19.9702 34.7462 19.7828 34.5059 19.6482C34.2703 19.5088 33.9892 19.4391 33.6623 19.4391C33.3355 19.4391 33.0519 19.5088 32.8116 19.6482C32.576 19.7828 32.3814 19.9702 32.2276 20.2105C32.0738 20.4509 31.9608 20.7272 31.8887 21.0397C31.8166 21.3473 31.7806 21.6741 31.7806 22.0202ZM40.5477 23.4622L43.6118 18.199H45.3494V26H43.6118V20.7297L40.5477 26H38.8101V18.199H40.5477V23.4622ZM43.1504 15.1998H44.4409C44.4409 15.5987 44.3448 15.952 44.1525 16.2596C43.9651 16.5624 43.6959 16.8003 43.3451 16.9734C42.999 17.1464 42.5856 17.2329 42.105 17.2329C41.3792 17.2329 40.8048 17.0455 40.3818 16.6705C39.9637 16.2908 39.7546 15.8006 39.7546 15.1998H41.0451C41.0451 15.4689 41.1244 15.7068 41.2831 15.9135C41.4465 16.1154 41.7204 16.2163 42.105 16.2163C42.4847 16.2163 42.7538 16.1154 42.9125 15.9135C43.0711 15.7068 43.1504 15.4689 43.1504 15.1998ZM50.8072 18.199V26H49.0624V18.199H50.8072ZM53.3666 18.199V19.5689H46.5462V18.199H53.3666ZM56.3227 23.4622L59.3868 18.199H61.1244V26H59.3868V20.7297L56.3227 26H54.5851V18.199H56.3227V23.4622Z" fill="white"/>
</svg>
