<svg width="42" height="41" viewBox="0 0 42 41" fill="none" xmlns="http://www.w3.org/2000/svg">
<path opacity="0.4" d="M20.52 10C19.7244 10 18.9613 10.3161 18.3987 10.8787C17.8361 11.4413 17.52 12.2044 17.52 13C17.52 13.7956 17.8361 14.5587 18.3987 15.1213C18.9613 15.6839 19.7244 16 20.52 16C21.3157 16 22.0787 15.6839 22.6413 15.1213C23.2039 14.5587 23.52 13.7956 23.52 13C23.52 12.2044 23.2039 11.4413 22.6413 10.8787C22.0787 10.3161 21.3157 10 20.52 10ZM13.02 17.5C12.2244 17.5 11.4613 17.8161 10.8987 18.3787C10.3361 18.9413 10.02 19.7044 10.02 20.5C10.02 21.2956 10.3361 22.0587 10.8987 22.6213C11.4613 23.1839 12.2244 23.5 13.02 23.5C13.8157 23.5 14.5787 23.1839 15.1413 22.6213C15.7039 22.0587 16.02 21.2956 16.02 20.5C16.02 19.7044 15.7039 18.9413 15.1413 18.3787C14.5787 17.8161 13.8157 17.5 13.02 17.5ZM17.52 28C17.52 28.7956 17.8361 29.5587 18.3987 30.1213C18.9613 30.6839 19.7244 31 20.52 31C21.3157 31 22.0787 30.6839 22.6413 30.1213C23.2039 29.5587 23.52 28.7956 23.52 28C23.52 27.2044 23.2039 26.4413 22.6413 25.8787C22.0787 25.3161 21.3157 25 20.52 25C19.7244 25 18.9613 25.3161 18.3987 25.8787C17.8361 26.4413 17.52 27.2044 17.52 28ZM28.02 17.5C27.2244 17.5 26.4613 17.8161 25.8987 18.3787C25.3361 18.9413 25.02 19.7044 25.02 20.5C25.02 21.2956 25.3361 22.0587 25.8987 22.6213C26.4613 23.1839 27.2244 23.5 28.02 23.5C28.8157 23.5 29.5787 23.1839 30.1413 22.6213C30.7039 22.0587 31.02 21.2956 31.02 20.5C31.02 19.7044 30.7039 18.9413 30.1413 18.3787C29.5787 17.8161 28.8157 17.5 28.02 17.5Z" fill="#6682A9"/>
<path d="M16.02 13C16.02 13.7956 15.7039 14.5587 15.1413 15.1213C14.5787 15.6839 13.8157 16 13.02 16C12.2244 16 11.4613 15.6839 10.8987 15.1213C10.3361 14.5587 10.02 13.7956 10.02 13C10.02 12.2044 10.3361 11.4413 10.8987 10.8787C11.4613 10.3161 12.2244 10 13.02 10C13.8157 10 14.5787 10.3161 15.1413 10.8787C15.7039 11.4413 16.02 12.2044 16.02 13ZM16.02 28C16.02 28.7956 15.7039 29.5587 15.1413 30.1213C14.5787 30.6839 13.8157 31 13.02 31C12.2244 31 11.4613 30.6839 10.8987 30.1213C10.3361 29.5587 10.02 28.7956 10.02 28C10.02 27.2044 10.3361 26.4413 10.8987 25.8787C11.4613 25.3161 12.2244 25 13.02 25C13.8157 25 14.5787 25.3161 15.1413 25.8787C15.7039 26.4413 16.02 27.2044 16.02 28ZM20.52 23.5C19.7244 23.5 18.9613 23.1839 18.3987 22.6213C17.8361 22.0587 17.52 21.2956 17.52 20.5C17.52 19.7044 17.8361 18.9413 18.3987 18.3787C18.9613 17.8161 19.7244 17.5 20.52 17.5C21.3157 17.5 22.0787 17.8161 22.6413 18.3787C23.2039 18.9413 23.52 19.7044 23.52 20.5C23.52 21.2956 23.2039 22.0587 22.6413 22.6213C22.0787 23.1839 21.3157 23.5 20.52 23.5ZM31.02 13C31.02 13.7956 30.7039 14.5587 30.1413 15.1213C29.5787 15.6839 28.8157 16 28.02 16C27.2244 16 26.4613 15.6839 25.8987 15.1213C25.3361 14.5587 25.02 13.7956 25.02 13C25.02 12.2044 25.3361 11.4413 25.8987 10.8787C26.4613 10.3161 27.2244 10 28.02 10C28.8157 10 29.5787 10.3161 30.1413 10.8787C30.7039 11.4413 31.02 12.2044 31.02 13ZM28.02 31C27.2244 31 26.4613 30.6839 25.8987 30.1213C25.3361 29.5587 25.02 28.7956 25.02 28C25.02 27.2044 25.3361 26.4413 25.8987 25.8787C26.4613 25.3161 27.2244 25 28.02 25C28.8157 25 29.5787 25.3161 30.1413 25.8787C30.7039 26.4413 31.02 27.2044 31.02 28C31.02 28.7956 30.7039 29.5587 30.1413 30.1213C29.5787 30.6839 28.8157 31 28.02 31Z" fill="#6682A9"/>
</svg>
