<svg width="43" height="41" viewBox="0 0 43 41" fill="none" xmlns="http://www.w3.org/2000/svg">
<path opacity="0.4" d="M17.0781 21.75H28.3477C29.6211 21.75 30.7344 20.8984 31.0625 19.668L32.6641 13.7188C32.9336 12.7266 32.1836 11.75 31.1562 11.75H15.1016C15.1797 11.9141 15.2383 12.0938 15.2734 12.2773L17.0781 21.75Z" fill="#6682A9"/>
<path d="M10.4102 11.4375C10.4102 10.918 10.8281 10.5 11.3477 10.5H13.125C14.1758 10.5 15.0781 11.2461 15.2734 12.2773L17.2891 22.8633C17.375 23.3047 17.7617 23.625 18.2109 23.625H29.4727C29.9922 23.625 30.4102 24.043 30.4102 24.5625C30.4102 25.082 29.9922 25.5 29.4727 25.5H18.2109C16.8594 25.5 15.6992 24.5391 15.4492 23.2148L13.4336 12.6289C13.4062 12.4805 13.2773 12.375 13.125 12.375H11.3477C10.8281 12.375 10.4102 11.957 10.4102 11.4375ZM15.4102 28.625C15.4102 28.3788 15.4587 28.135 15.5529 27.9075C15.6471 27.68 15.7852 27.4733 15.9593 27.2992C16.1334 27.1251 16.3401 26.987 16.5676 26.8927C16.7951 26.7985 17.0389 26.75 17.2852 26.75C17.5314 26.75 17.7752 26.7985 18.0027 26.8927C18.2302 26.987 18.4369 27.1251 18.611 27.2992C18.7851 27.4733 18.9232 27.68 19.0174 27.9075C19.1117 28.135 19.1602 28.3788 19.1602 28.625C19.1602 28.8712 19.1117 29.115 19.0174 29.3425C18.9232 29.57 18.7851 29.7767 18.611 29.9508C18.4369 30.1249 18.2302 30.263 18.0027 30.3573C17.7752 30.4515 17.5314 30.5 17.2852 30.5C17.0389 30.5 16.7951 30.4515 16.5676 30.3573C16.3401 30.263 16.1334 30.1249 15.9593 29.9508C15.7852 29.7767 15.6471 29.57 15.5529 29.3425C15.4587 29.115 15.4102 28.8712 15.4102 28.625ZM28.5352 26.75C29.0324 26.75 29.5094 26.9475 29.861 27.2992C30.2126 27.6508 30.4102 28.1277 30.4102 28.625C30.4102 29.1223 30.2126 29.5992 29.861 29.9508C29.5094 30.3025 29.0324 30.5 28.5352 30.5C28.0379 30.5 27.561 30.3025 27.2093 29.9508C26.8577 29.5992 26.6602 29.1223 26.6602 28.625C26.6602 28.1277 26.8577 27.6508 27.2093 27.2992C27.561 26.9475 28.0379 26.75 28.5352 26.75Z" fill="#6682A9"/>
</svg>
